<?xml version="1.0" standalone="no"?>
<!DOCTYPE svg PUBLIC "-//W3C//DTD SVG 20010904//EN"
 "http://www.w3.org/TR/2001/REC-SVG-20010904/DTD/svg10.dtd">
<svg version="1.0" xmlns="http://www.w3.org/2000/svg"
 width="225.000000pt" height="225.000000pt" viewBox="0 0 225.000000 225.000000"
 preserveAspectRatio="xMidYMid meet">

<g transform="translate(0.000000,225.000000) scale(0.100000,-0.100000)"
fill="#000000" stroke="none">
<path d="M1605 1635 c-17 -16 -25 -35 -25 -60 0 -31 12 -49 103 -147 137 -149
187 -205 187 -212 0 -3 -398 -6 -885 -6 l-886 0 -24 -25 c-34 -33 -34 -87 0
-120 l24 -25 891 0 892 0 -49 -54 c-26 -29 -94 -103 -150 -164 -91 -98 -103
-116 -103 -147 0 -49 36 -85 86 -85 42 0 17 -24 293 275 102 110 197 214 213
230 l28 31 -236 254 c-129 140 -242 261 -251 268 -28 21 -81 15 -108 -13z"/>
</g>
</svg>
